<svg xmlns="http://www.w3.org/2000/svg" width="184" height="48" fill="none"><path fill="#FEFEFE" d="M23.248 47.656a23.57 23.57 0 0 1-10.593-2.881 23.954 23.954 0 0 1-4.567-3.255 38.784 38.784 0 0 1-1.618-1.618c-2.062-2.294-3.608-4.83-4.655-7.635a23.684 23.684 0 0 1-1.402-10.27 23.573 23.573 0 0 1 2.81-9.342 23.99 23.99 0 0 1 3.247-4.56 38.85 38.85 0 0 1 1.618-1.618c2.326-2.092 4.86-3.63 7.739-4.696C19.242.516 22.964.068 26.657.478A23.563 23.563 0 0 1 37.68 4.683a24.717 24.717 0 0 1 2.233 1.794 38.737 38.737 0 0 1 1.618 1.619c2.091 2.328 3.63 4.863 4.689 7.73 1.267 3.424 1.712 7.127 1.304 10.83a23.57 23.57 0 0 1-2.746 8.687 23.99 23.99 0 0 1-3.246 4.559 39.452 39.452 0 0 1-1.627 1.626c-2.323 2.088-4.858 3.625-7.73 4.689a23.628 23.628 0 0 1-8.926 1.44Zm2.193-2.182c2.187-.16 4.137-.58 6.107-1.314 6.116-2.28 10.926-7.274 12.964-13.462.58-1.76.903-3.416 1.046-5.363.041-.555.041-2.31 0-2.865-.163-2.217-.577-4.146-1.316-6.13A21.675 21.675 0 0 0 31.548 3.645a21.402 21.402 0 0 0-5.363-1.249c-.84-.085-1.08-.095-2.201-.095-1.12 0-1.361.01-2.201.095-1.849.187-3.618.6-5.363 1.249A21.675 21.675 0 0 0 3.726 16.339c-.738 1.981-1.153 3.915-1.316 6.131-.041.555-.041 2.31 0 2.865.163 2.218.577 4.147 1.316 6.131C6 37.578 10.999 42.391 17.188 44.43c1.914.63 3.744.965 5.86 1.072.061.003.544.004 1.072.002a20.62 20.62 0 0 0 1.32-.03Zm-.64-7.182a2.588 2.588 0 0 1-2.39-2.51l-.004-.149-4.08-1.52-4.08-1.519-.033.045c-.078.101-.3.318-.417.405a2.073 2.073 0 0 1-2.144.189 1.934 1.934 0 0 1-.541-.397 1.98 1.98 0 0 1-.609-1.458c0-.569.201-1.05.609-1.458.406-.407.89-.609 1.458-.609.567 0 1.052.202 1.458.609.408.408.609.888.609 1.46 0 .12-.005.235-.01.258-.01.037-.003.042.099.08l4.007 1.493c2.143.798 3.9 1.446 3.902 1.438.015-.045.186-.337.248-.423.448-.624 1.165-1.035 1.89-1.083.076-.005.14-.016.14-.024 0-.02.894-5.883.905-5.94.009-.04.007-.043-.03-.034-.101.025-.242-.093-.26-.22-.023-.151.18-.292.315-.22.018.01.036.015.04.011.003-.004.452-2.934.998-6.512.546-3.578.996-6.52 1-6.539.007-.027-.01-.04-.097-.078-.102-.045-.105-.045-.134-.015-.016.017-.793.966-1.727 2.109l-1.699 2.078.041.067a1.56 1.56 0 0 1-2.17 2.133 1.602 1.602 0 0 1-.655-.893 1.476 1.476 0 0 1-.055-.432l-.002-.15-2.777-1.132a152.643 152.643 0 0 0-2.786-1.12l-.105.14c-.122.163-.35.39-.513.509-.463.34-.976.51-1.543.51a2.51 2.51 0 0 1-1.265-.33 2.6 2.6 0 0 1-1.296-1.898 3.61 3.61 0 0 1 0-.705 2.6 2.6 0 0 1 1.296-1.898 2.608 2.608 0 0 1 1.924-.248 2.622 2.622 0 0 1 1.84 1.84c.079.31.104.717.061 1.009a.402.402 0 0 0-.005.146c.008.008 1.267.525 2.799 1.15l2.784 1.136.097-.09a1.57 1.57 0 0 1 1.434-.362c.07.018.117.023.125.014.08-.088 3.46-4.236 3.46-4.245a.431.431 0 0 0-.049-.084 2.28 2.28 0 0 1-.326-.82 2.135 2.135 0 0 1 .197-1.303c.108-.215.221-.371.393-.543a2.06 2.06 0 0 1 1.49-.618c.354 0 .636.067.95.225.212.107.368.22.54.393.405.404.617.916.617 1.49a2 2 0 0 1-.223.946 1.97 1.97 0 0 1-.394.543 2.088 2.088 0 0 1-1.09.582l-.143.028-1.484 9.715-1.492 9.773-.01.057.11.043c.128.05.352.176.496.278.099.07.102.071.13.042.172-.183 7.448-7.794 7.537-7.885l.121-.123-.071-.077a2.854 2.854 0 0 1-.78-2.159 2.868 2.868 0 0 1 1.277-2.186 2.983 2.983 0 0 1 3.298 0c.33.22.582.473.809.81.636.949.636 2.19 0 3.138-.227.339-.48.592-.809.811a2.994 2.994 0 0 1-2.803.27l-.117-.05-.042.045c-.78.814-7.764 8.124-7.782 8.145-.025.03-.023.04.048.184a2.583 2.583 0 0 1-2.51 3.712Zm-9.83-7.709a.312.312 0 0 1-.121-.177c-.017-.082.043-.187.13-.23.087-.041.16-.032.231.028.074.062.101.126.092.212-.007.059-.02.084-.073.133-.057.053-.075.06-.142.06a.275.275 0 0 1-.118-.026Zm.885-.293a.229.229 0 0 1 .012-.404.218.218 0 0 1 .228.023c.064.045.114.16.1.229a.23.23 0 0 1-.34.152Zm.899-.287c-.119-.072-.158-.184-.103-.298a.196.196 0 0 1 .102-.103c.085-.04.112-.04.193 0a.217.217 0 0 1 .134.193c.006.06 0 .089-.027.132a.225.225 0 0 1-.3.076Zm.893-.284a.276.276 0 0 1-.094-.097c-.07-.118-.03-.25.092-.314.183-.096.403.125.308.309a.226.226 0 0 1-.306.102Zm-3.81-.053c-.143-.088-.153-.262-.02-.373.093-.08.21-.071.297.02a.24.24 0 0 1 .025.268.247.247 0 0 1-.193.116.247.247 0 0 1-.108-.031Zm4.691-.24c-.118-.073-.155-.24-.074-.336.06-.07.127-.102.2-.092a.24.24 0 0 1 .21.239.223.223 0 0 1-.336.188Zm-6.023-.26c-.145-.098-.143-.292.005-.382.15-.092.33.016.331.198 0 .066-.008.085-.06.142-.053.056-.074.066-.141.073-.064.006-.09 0-.135-.03Zm6.915-.033c-.074-.05-.113-.108-.122-.181-.021-.176.187-.31.33-.212a.41.41 0 0 1 .092.092c.126.187-.113.428-.3.301Zm-4.977-.184a.202.202 0 0 1-.121-.196c0-.128.1-.232.224-.232.17 0 .286.21.19.34-.08.109-.189.141-.293.088Zm5.877-.094c-.084-.043-.123-.111-.123-.217 0-.075.007-.098.04-.133.113-.121.262-.116.358.012.055.074.065.138.033.218a.226.226 0 0 1-.308.12Zm.9-.284a.27.27 0 0 1-.136-.17c-.015-.05-.013-.07.014-.133.037-.084.088-.123.177-.135.182-.024.322.187.227.343a.228.228 0 0 1-.282.095Zm.906-.284c-.137-.055-.199-.215-.128-.33.078-.13.24-.153.345-.052a.33.33 0 0 1 .072.108c.057.171-.122.34-.289.274Zm-9.537-.045c-.168-.106-.148-.34.036-.41.068-.026.076-.026.144 0 .228.087.182.411-.061.436a.17.17 0 0 1-.12-.026Zm2.445-.014a.233.233 0 0 1-.094-.106c-.034-.067-.036-.082-.02-.138a.26.26 0 0 1 .163-.178.237.237 0 0 1 .243.088c.048.067.05.183.003.246-.082.11-.19.142-.295.088Zm7.954-.244c-.212-.111-.142-.432.094-.432.183 0 .3.233.185.37a.265.265 0 0 1-.184.094.277.277 0 0 1-.095-.032Zm.905-.279c-.117-.05-.178-.206-.123-.312a.228.228 0 0 1 .413.009.216.216 0 0 1-.11.296c-.078.035-.113.037-.18.008Zm-8.243-.191a.217.217 0 0 1-.136-.2c0-.291.406-.323.444-.035.016.12-.104.259-.222.257a.26.26 0 0 1-.086-.022Zm9.15-.092c-.138-.055-.202-.226-.13-.345.045-.073.117-.106.213-.097.192.019.281.254.145.384-.074.07-.15.09-.229.058Zm-12.111-.1c-.159-.07-.192-.264-.064-.376.078-.068.154-.08.243-.036.175.085.162.336-.022.413-.064.026-.095.026-.157-.001Zm3.546-.533a.216.216 0 0 1-.124-.216c.022-.235.314-.299.42-.092.096.184-.113.402-.296.308Zm11.245-.23a.294.294 0 0 1-.166-.177.224.224 0 0 1 .157-.268c.19-.057.363.173.258.345a.232.232 0 0 1-.249.1Zm-14.76-.191c-.1-.064-.129-.214-.063-.315.112-.17.381-.107.404.095.016.142-.081.252-.222.252a.241.241 0 0 1-.12-.032Zm15.585-.132c-.179-.122-.13-.368.085-.419.061-.014.173.038.219.101.075.106.056.224-.048.312a.224.224 0 0 1-.256.006Zm-11.477-.169c-.124-.068-.16-.194-.091-.313.069-.117.185-.152.298-.089a.205.205 0 0 1 .112.193c0 .172-.176.288-.32.21Zm12.377-.115c-.242-.148-.065-.518.193-.404.123.055.177.184.125.3a.22.22 0 0 1-.318.104Zm.852-.325c-.089-.09-.104-.159-.056-.258.066-.136.226-.173.337-.08.178.15.092.407-.136.407-.068 0-.083-.007-.145-.069Zm-17.26-.19c-.19-.12-.099-.413.128-.414.177 0 .277.206.171.354a.223.223 0 0 1-.3.06Zm18.188-.06a.231.231 0 0 1 .01-.407c.2-.104.426.17.286.348a.232.232 0 0 1-.296.059Zm-13.565-.038c-.129-.066-.162-.202-.078-.325a.218.218 0 0 1 .39.05c.026.067.026.076.002.141a.244.244 0 0 1-.143.153c-.065.025-.092.022-.17-.019Zm14.461-.25c-.166-.101-.164-.321.003-.402.083-.04.124-.04.197.001.08.046.118.103.127.193.005.059 0 .089-.027.132a.225.225 0 0 1-.3.076Zm.894-.284c-.06-.03-.132-.14-.132-.204 0-.125.102-.226.227-.226.167 0 .285.184.21.328a.226.226 0 0 1-.305.102Zm-14.74-.172c-.158-.071-.19-.264-.063-.376.066-.058.116-.074.192-.06a.228.228 0 0 1 .177.259.274.274 0 0 1-.148.177c-.064.027-.095.027-.157 0Zm-5.142-.117c-.21-.103-.134-.426.1-.426.126 0 .219.094.219.221 0 .087-.03.139-.115.196a.192.192 0 0 1-.204.01Zm5.735-.603a.206.206 0 0 1-.132-.19.217.217 0 0 1 .112-.22c.19-.116.42.121.296.304-.073.107-.182.15-.276.106Zm-5.619-.31a.224.224 0 0 1-.164-.238c.025-.223.297-.288.413-.098.066.11.022.25-.097.312-.07.036-.092.039-.152.024Zm6.208-.42c-.168-.076-.177-.3-.017-.402a.243.243 0 0 1 .242.01c.14.103.107.333-.056.399-.078.03-.087.03-.17-.007Zm-6.195-.544c-.1-.061-.138-.216-.073-.302.114-.155.304-.149.392.013.103.19-.132.403-.319.289Zm6.81-.168c-.077-.027-.099-.046-.13-.112a.206.206 0 0 1 .004-.201c.113-.213.419-.144.419.094 0 .094-.05.174-.135.212-.077.035-.08.035-.157.007Zm.613-.715c-.07-.015-.155-.105-.169-.18-.008-.042-.001-.076.024-.13.13-.267.524-.098.404.174a.223.223 0 0 1-.259.136Zm-7.348-.05a.223.223 0 0 1 .12-.412c.136 0 .226.104.212.244-.015.165-.199.258-.332.169Zm7.943-.67a.226.226 0 0 1-.163-.27c.018-.068.1-.157.155-.17a.236.236 0 0 1 .279.149c.053.163-.1.328-.27.291Zm13.624-.143c-.13-.08-.153-.242-.047-.348.11-.11.281-.08.352.06a.295.295 0 0 1 .028.104c0 .106-.115.216-.224.216a.247.247 0 0 1-.109-.032Zm-21.483-.112c-.2-.121-.12-.42.11-.42a.22.22 0 0 1 .218.239c-.018.166-.194.263-.328.181Zm8.39-.495c-.074-.045-.107-.117-.097-.215.006-.068.017-.089.073-.141.056-.052.076-.061.14-.061.125 0 .213.077.227.2.009.08-.02.146-.093.206-.063.053-.174.058-.25.01Zm12.61-.155a.31.31 0 0 1-.122-.121c-.05-.097-.01-.223.093-.285.178-.109.406.1.31.285-.042.08-.099.12-.181.125a.343.343 0 0 1-.1-.004Zm-20.892-.263c-.165-.07-.203-.266-.072-.381.077-.067.15-.078.236-.036.085.04.13.112.13.205 0 .146-.166.265-.294.212Zm20.379-.523a.3.3 0 0 1-.122-.12c-.05-.096-.009-.222.094-.285.102-.062.234-.025.3.084.087.143-.02.335-.186.331a.37.37 0 0 1-.086-.01Zm-20.293-.407a.247.247 0 0 1-.16-.168.234.234 0 0 1 .179-.27c.078-.015.128.001.196.064.056.05.06.06.06.147 0 .069-.009.105-.033.136a.229.229 0 0 1-.242.09Zm19.716-.427a.308.308 0 0 1-.072-.104.235.235 0 0 1 .146-.267c.197-.065.37.155.261.33-.043.07-.105.102-.2.102-.064 0-.082-.007-.135-.06Zm-19.7-.53c-.1-.06-.133-.21-.07-.312.099-.16.343-.129.402.051.063.191-.16.366-.333.26Zm19.198-.242c-.107-.094-.114-.23-.017-.327.18-.18.468.038.35.265-.035.069-.112.11-.202.11-.061 0-.086-.008-.131-.048Zm-.436-.737c-.065-.018-.145-.11-.159-.18a.212.212 0 0 1 .023-.13c.027-.06.046-.08.107-.107.156-.068.312.034.311.206 0 .142-.144.25-.282.21Zm-.512-.784a.276.276 0 0 1-.159-.182c-.025-.135.123-.283.258-.258.117.022.209.16.182.277a.242.242 0 0 1-.158.164c-.064.018-.056.018-.123-.001Zm-.526-.79a.225.225 0 0 1 .024-.425c.212-.061.372.219.212.372-.078.074-.152.09-.236.053Zm-.513-.784c-.152-.068-.19-.256-.075-.367a.214.214 0 0 1 .32.012c.101.115.07.279-.066.345-.08.038-.112.04-.179.01Zm-.512-.784a.204.204 0 0 1-.132-.19c-.011-.156.085-.245.258-.238.063.003.164.105.178.181a.226.226 0 0 1-.123.237c-.08.037-.115.039-.18.01Z"/><path fill="#1055AD" d="M23.432 45.495a21.485 21.485 0 0 1-10.549-3.06 21.71 21.71 0 0 1-8.662-9.8 21.57 21.57 0 0 1-1.783-7.156c-.07-.98-.07-2.173 0-3.153.44-6.203 3.575-11.935 8.587-15.706a21.534 21.534 0 0 1 11.382-4.263c.958-.07 2.196-.07 3.154 0 2.475.18 4.896.784 7.156 1.784a21.7 21.7 0 0 1 11.03 11.03c1 2.26 1.603 4.68 1.783 7.155.07.957.07 2.196 0 3.153-.457 6.282-3.62 12.02-8.707 15.795a21.47 21.47 0 0 1-13.391 4.222Zm1.92-7.203a2.528 2.528 0 0 0 1.474-.743c.38-.38.595-.772.714-1.305.034-.15.038-.209.038-.528 0-.32-.004-.38-.038-.528a2.684 2.684 0 0 0-.209-.61l-.075-.152 3.92-4.098 3.92-4.099.17.069c.19.076.501.156.708.181.175.021.595.021.769 0a3.065 3.065 0 0 0 1.272-.475 2.892 2.892 0 0 0 1.244-1.847c.032-.16.037-.23.037-.55 0-.322-.005-.392-.037-.552a2.92 2.92 0 0 0-2.185-2.258 2.609 2.609 0 0 0-.716-.08c-.298 0-.456.018-.715.08a2.911 2.911 0 0 0-2.205 2.39 3.64 3.64 0 0 0 0 .84c.084.57.314 1.05.734 1.531l.078.09-.04.044c-.239.254-7.59 7.938-7.605 7.949-.014.008-.064-.017-.148-.074a2.471 2.471 0 0 0-.445-.245c-.06-.024-.106-.053-.102-.062.003-.01.675-4.4 1.492-9.759l1.487-9.741.118-.019a2.162 2.162 0 0 0 1.116-.588c.305-.305.519-.714.592-1.134a2.838 2.838 0 0 0 0-.74 2.156 2.156 0 0 0-1.149-1.537 2.454 2.454 0 0 0-.58-.19 2.796 2.796 0 0 0-.736 0 2.13 2.13 0 0 0-1.649 1.422c-.075.228-.104.41-.104.677 0 .434.105.797.331 1.148l.07.11-.06.073-1.73 2.116c-1.087 1.329-1.68 2.04-1.697 2.04a2.361 2.361 0 0 1-.162-.03c-.2-.042-.55-.028-.742.03-.233.07-.455.193-.634.354l-.085.077-.115-.047-2.784-1.135-2.67-1.088.013-.096c.006-.053.012-.244.012-.425 0-.284-.006-.35-.038-.495a2.492 2.492 0 0 0-.714-1.306 2.459 2.459 0 0 0-1.193-.686 2.187 2.187 0 0 0-.64-.073c-.28 0-.4.013-.64.073a2.46 2.46 0 0 0-1.194.686c-.38.38-.595.772-.714 1.306-.034.148-.038.208-.038.527 0 .32.004.38.038.528.12.534.333.925.714 1.306.203.203.37.332.59.453.231.128.603.25.883.29.145.02.576.02.72 0 .281-.04.653-.162.884-.29.297-.164.633-.453.825-.71.053-.07.103-.13.111-.134.008-.003 1.256.502 2.774 1.12L21.37 18.5l.008.225c.01.27.051.431.173.664.196.374.534.65.951.779.136.042.162.044.44.044.279 0 .305-.002.44-.044.523-.16.915-.553 1.075-1.075.042-.135.045-.162.045-.44s-.003-.305-.045-.44a2.171 2.171 0 0 0-.125-.3c-.075-.143-.08-.159-.057-.184l1.684-2.061a365.899 365.899 0 0 1 1.695-2.067l.035-.034.084.037c.055.025.084.048.084.066 0 .028-1.963 12.915-1.977 12.98-.006.03-.017.032-.108.027-.128-.008-.192.029-.239.133-.043.098-.028.182.046.265.055.06.16.106.204.088.013-.005.018.005.014.027-.015.09-.902 5.91-.902 5.921 0 .007-.034.013-.076.013-.202 0-.553.081-.807.184a2.349 2.349 0 0 0-.854.575 2.386 2.386 0 0 0-.472.628l-.069.131-.057-.023-3.986-1.486-3.928-1.463.002-.253c.004-.297-.02-.46-.103-.71a2.043 2.043 0 0 0-.542-.845 1.993 1.993 0 0 0-.767-.46 1.919 1.919 0 0 0-.667-.104c-.44 0-.804.108-1.165.347a2.11 2.11 0 0 0-.891 1.372c-.032.184-.032.54 0 .724a2.093 2.093 0 0 0 1.389 1.615c.226.076.408.104.667.104.26 0 .44-.029.672-.106.374-.125.725-.372.977-.688l.04-.05 4.066 1.516 4.066 1.516.01.222c.023.47.175.919.448 1.323.197.29.574.63.9.81.224.125.602.25.867.29.135.019.602.02.737 0Zm-10.145-7.699a.217.217 0 0 0 .112-.217c-.015-.211-.25-.316-.405-.18-.129.114-.106.305.048.4.066.04.178.038.245-.003Zm.898-.288a.271.271 0 0 0 .11-.235c-.02-.119-.14-.229-.253-.229a.303.303 0 0 0-.21.128.279.279 0 0 0 .018.266c.079.102.23.134.335.07Zm.88-.288c.114-.07.152-.23.08-.336-.06-.089-.116-.12-.213-.12-.247 0-.33.31-.12.452a.25.25 0 0 0 .252.004Zm.874-.278c.113-.047.169-.204.113-.32a.246.246 0 0 0-.342-.12.213.213 0 0 0-.125.227c.016.177.19.282.354.213Zm-3.81-.049a.245.245 0 0 0 .138-.222c0-.15-.09-.242-.235-.242-.091 0-.144.028-.204.109-.047.062-.047.214 0 .277a.253.253 0 0 0 .302.079Zm4.7-.24a.352.352 0 0 0 .086-.074c.057-.067.06-.204.006-.281-.141-.207-.444-.12-.444.129 0 .183.193.307.351.226Zm-6.007-.265a.25.25 0 0 0 .01-.418c-.063-.041-.19-.04-.259.002a.297.297 0 0 0-.115.216c0 .067.049.153.112.196a.25.25 0 0 0 .252.004Zm6.933-.043c.178-.131.095-.424-.129-.449-.213-.024-.343.219-.21.393.023.03.064.064.092.077.066.03.192.019.247-.021Zm-4.995-.193a.265.265 0 0 0 .105-.215c0-.084-.03-.138-.108-.197-.061-.045-.198-.045-.26 0a.366.366 0 0 0-.118.216c0 .068.067.178.128.212.07.037.192.03.253-.016Zm5.835-.074a.238.238 0 0 0 .126-.319c-.106-.241-.467-.18-.467.08 0 .185.176.308.341.239Zm.907-.294a.233.233 0 0 0 .129-.209c0-.262-.34-.358-.461-.13-.113.21.12.445.332.338Zm.891-.294c.126-.06.172-.239.09-.35-.105-.14-.3-.152-.402-.024a.258.258 0 0 0 .01.313c.08.096.187.117.302.061Zm-9.503-.032c.217-.122.135-.453-.112-.453-.25 0-.334.347-.112.458.075.038.15.036.224-.006Zm2.462-.025c.078-.059.106-.112.107-.204.001-.144-.095-.242-.237-.242-.144 0-.24.1-.24.252-.001.087.032.142.119.202.044.03.07.036.131.03a.283.283 0 0 0 .12-.038Zm7.961-.247c.138-.098.125-.322-.024-.414-.106-.066-.267-.03-.331.074a.274.274 0 0 0 .026.295c.026.028.069.06.095.073a.27.27 0 0 0 .234-.028Zm.855-.27c.159-.078.18-.279.042-.408-.04-.038-.067-.048-.142-.053-.077-.006-.101 0-.148.03a.244.244 0 0 0 .031.426c.088.045.132.045.217.004Zm-8.224-.204c.108-.08.145-.219.087-.325a.3.3 0 0 0-.216-.128c-.184 0-.303.23-.2.386.073.108.23.14.33.067Zm9.104-.083c.082-.037.113-.074.135-.155a.252.252 0 0 0-.055-.229c-.054-.064-.12-.088-.217-.078a.182.182 0 0 0-.139.065c-.048.048-.058.07-.064.143-.017.203.162.336.34.254Zm-12.1-.097a.24.24 0 0 0 .062-.399c-.14-.123-.342-.058-.392.127-.04.15.072.296.232.301a.31.31 0 0 0 .098-.029Zm3.59-.541c.158-.117.15-.341-.014-.424-.165-.083-.352.04-.352.232 0 .184.22.3.366.192Zm11.219-.242c.099-.053.134-.237.065-.34-.102-.15-.33-.152-.417-.002a.277.277 0 0 0-.03.123c0 .196.205.314.382.22Zm-14.681-.18c.167-.156.074-.43-.146-.43a.246.246 0 0 0-.179.413c.05.055.088.067.19.061.072-.003.102-.013.134-.044Zm15.568-.115a.235.235 0 0 0 .07-.326.241.241 0 0 0-.451.087.278.278 0 0 0 .112.242.274.274 0 0 0 .269-.003Zm-11.545-.165c.186-.074.197-.352.017-.443-.154-.077-.332.029-.347.207a.211.211 0 0 0 .124.225c.083.043.121.045.206.011Zm12.435-.118c.128-.078.144-.264.032-.381-.082-.085-.188-.1-.304-.04-.148.074-.143.328.009.42a.29.29 0 0 0 .263.001Zm.881-.289a.217.217 0 0 0 .112-.22c-.008-.105-.046-.16-.144-.21a.217.217 0 0 0-.26.033c-.17.149-.06.43.168.43a.256.256 0 0 0 .124-.033Zm-17.3-.221a.294.294 0 0 0 .127-.218.284.284 0 0 0-.028-.105c-.083-.165-.32-.172-.421-.012-.042.067-.037.217.01.27.084.094.207.12.311.065Zm18.198-.067a.27.27 0 0 0 .11-.236.268.268 0 0 0-.162-.204c-.223-.086-.412.144-.29.352a.274.274 0 0 0 .092.093.288.288 0 0 0 .25-.005Zm-13.61-.03c.177-.081.19-.338.02-.433-.233-.13-.479.164-.307.369.079.093.174.114.286.064Zm14.474-.248c.085-.045.12-.1.128-.198.005-.077 0-.101-.031-.147-.062-.09-.117-.121-.214-.121-.247 0-.33.31-.12.452a.26.26 0 0 0 .237.014Zm.89-.288c.132-.056.176-.248.084-.37-.082-.106-.193-.13-.314-.068a.212.212 0 0 0-.124.225c.016.177.19.281.354.213Zm-14.737-.196a.262.262 0 0 0 .092-.303.222.222 0 0 0-.194-.148.221.221 0 0 0-.207.08c-.15.178-.02.432.208.403a.29.29 0 0 0 .1-.032Zm-5.152-.098c.167-.084.175-.346.013-.43a.24.24 0 0 0-.329.105c-.044.088-.045.132-.004.216.058.12.2.169.32.109Zm5.746-.626c.141-.103.148-.31.014-.408a.28.28 0 0 0-.253-.016.26.26 0 0 0-.096.354c.065.107.236.142.335.07Zm-5.65-.32a.266.266 0 0 0 .112-.199c0-.13-.08-.225-.204-.245-.139-.022-.276.1-.276.244 0 .188.22.307.368.2Zm6.244-.401a.26.26 0 0 0 .112-.208c0-.18-.173-.29-.343-.22-.143.06-.184.281-.072.393.083.083.214.098.303.035Zm-6.167-.53a.3.3 0 0 0 .115-.209.296.296 0 0 0-.127-.21.238.238 0 0 0-.353.216c0 .148.086.235.232.235a.258.258 0 0 0 .133-.032Zm6.695-.16a.303.303 0 0 0 .112-.072c.046-.048.055-.07.06-.151.006-.078.001-.106-.027-.15-.06-.1-.2-.136-.315-.081a.28.28 0 0 0-.134.22c0 .101.075.205.17.233.062.019.07.019.134 0Zm.659-.744c.04-.017.106-.12.118-.187a.207.207 0 0 0-.021-.13c-.102-.228-.437-.165-.463.088-.019.189.173.309.366.23Zm-7.29-.024c.157-.096.155-.348-.003-.423a.284.284 0 0 0-.247.007c-.105.064-.144.24-.075.345.065.1.221.133.325.07Zm7.89-.703a.285.285 0 0 0 .113-.244c-.018-.137-.112-.211-.256-.202-.078.005-.1.014-.146.059-.117.113-.103.306.027.386a.292.292 0 0 0 .261 0Zm13.678-.118a.233.233 0 0 0 .106-.222c-.026-.305-.475-.288-.475.018 0 .19.213.308.37.204Zm-21.5-.11c.119-.067.163-.229.091-.334-.06-.088-.113-.118-.205-.117-.25.004-.332.345-.11.457.074.037.15.035.223-.006Zm8.42-.498c.2-.137.112-.444-.128-.444s-.335.317-.134.45a.27.27 0 0 0 .262-.006Zm12.568-.177a.233.233 0 0 0 .106-.223.23.23 0 0 0-.272-.215c-.29.038-.256.475.036.475a.222.222 0 0 0 .13-.037Zm-20.93-.25a.24.24 0 0 0 .062-.4c-.141-.123-.343-.058-.393.127-.04.15.073.297.232.302a.31.31 0 0 0 .098-.029Zm20.412-.53a.24.24 0 0 0-.106-.443.224.224 0 0 0-.253.214.238.238 0 0 0 .36.23Zm-20.285-.433a.247.247 0 0 0 .087-.194c0-.243-.323-.326-.444-.115-.065.112-.042.23.062.318.047.04.061.043.152.037.08-.005.11-.015.143-.046Zm19.812-.38c.06-.057.067-.07.073-.157.006-.08 0-.103-.03-.149-.134-.193-.422-.122-.442.109-.013.15.092.258.247.258.078 0 .092-.006.152-.062Zm-19.773-.528a.294.294 0 0 0 .128-.219c0-.177-.212-.293-.365-.2-.143.087-.159.303-.029.4.076.056.18.063.266.019Zm19.234-.228c.15-.092.135-.333-.024-.418-.073-.038-.134-.037-.219.003a.245.245 0 0 0-.094.345c.066.1.232.135.337.07Zm-.508-.782c.1-.053.133-.235.063-.34a.27.27 0 0 0-.242-.103.28.28 0 0 0-.186.162c-.071.216.158.392.365.28Zm-.52-.78c.103-.054.142-.229.075-.34a.26.26 0 0 0-.242-.106.242.242 0 0 0-.191.299c.047.158.207.223.358.146Zm-.499-.792a.253.253 0 0 0 .068-.32.265.265 0 0 0-.109-.093c-.071-.036-.084-.037-.151-.02a.24.24 0 0 0-.18.18c-.018.068-.017.08.019.152.07.141.232.187.353.1Zm-.557-.757a.238.238 0 0 0 .125-.32.238.238 0 0 0-.388-.075c-.183.182.025.495.263.395Zm-.512-.784a.234.234 0 0 0 .128-.312.218.218 0 0 0-.217-.146c-.15 0-.237.085-.237.233 0 .18.164.293.326.225Z"/><path fill="#20478F" d="M23.648 47.998a23.915 23.915 0 0 1-12.823-3.938 23.954 23.954 0 0 1-5.267-4.702 23.97 23.97 0 0 1-4.291-7.642 23.874 23.874 0 0 1-1.248-6.645 27.905 27.905 0 0 1 .041-2.833 23.84 23.84 0 0 1 3.357-10.589A24.121 24.121 0 0 1 15.1 1.703 23.882 23.882 0 0 1 22.24.06c1.094-.08 2.428-.08 3.522 0a23.84 23.84 0 0 1 10.59 3.357 24.12 24.12 0 0 1 6.09 5.223 23.97 23.97 0 0 1 4.293 7.643 23.873 23.873 0 0 1 1.206 5.955c.08 1.09.08 2.43 0 3.521a23.84 23.84 0 0 1-3.357 10.59 24.119 24.119 0 0 1-5.223 6.09 23.967 23.967 0 0 1-7.644 4.292 23.958 23.958 0 0 1-8.068 1.267Zm1-.325a23.575 23.575 0 0 0 14.175-5.198 24.263 24.263 0 0 0 3.655-3.654c3.818-4.761 5.628-10.705 5.125-16.823a23.58 23.58 0 0 0-5.617-13.414 24.59 24.59 0 0 0-2.576-2.575 23.666 23.666 0 0 0-9.263-4.892 23.94 23.94 0 0 0-8.804-.656A23.573 23.573 0 0 0 9.16 5.535a24.175 24.175 0 0 0-3.65 3.657 23.632 23.632 0 0 0-4.672 9.82 24.075 24.075 0 0 0-.376 7.644c.544 4.942 2.65 9.583 6.04 13.31a36.703 36.703 0 0 0 1.53 1.531 23.694 23.694 0 0 0 9.822 5.383c2.191.589 4.52.86 6.795.793Z"/><path fill="#000" d="M72.202 21.48c0 .813-.187 1.56-.56 2.24-.374.667-.947 1.207-1.72 1.62-.774.413-1.734.62-2.88.62h-2.12V31h-3.42V16.96h5.54c1.12 0 2.066.193 2.84.58.773.387 1.353.92 1.74 1.6.386.68.58 1.46.58 2.34Zm-5.42 1.76c.653 0 1.14-.153 1.46-.46.32-.307.48-.74.48-1.3s-.16-.993-.48-1.3c-.32-.307-.807-.46-1.46-.46h-1.86v3.52h1.86Zm12.28 7.92c-1.093 0-2.08-.233-2.96-.7a5.21 5.21 0 0 1-2.06-2c-.493-.867-.74-1.88-.74-3.04 0-1.147.253-2.153.76-3.02a5.14 5.14 0 0 1 2.08-2.02c.88-.467 1.867-.7 2.96-.7s2.08.233 2.96.7a5.14 5.14 0 0 1 2.08 2.02c.507.867.76 1.873.76 3.02s-.26 2.16-.78 3.04a5.144 5.144 0 0 1-2.1 2c-.88.467-1.867.7-2.96.7Zm0-2.96c.654 0 1.207-.24 1.66-.72.467-.48.7-1.167.7-2.06s-.227-1.58-.68-2.06c-.44-.48-.987-.72-1.64-.72-.666 0-1.22.24-1.66.72-.44.467-.66 1.153-.66 2.06 0 .893.214 1.58.64 2.06.44.48.987.72 1.64.72Zm11.075-12V31h-3.42V16.2h3.42Zm4.198 2.48c-.6 0-1.093-.173-1.48-.52-.373-.36-.56-.8-.56-1.32 0-.533.187-.973.56-1.32.387-.36.88-.54 1.48-.54.587 0 1.067.18 1.44.54.387.347.58.787.58 1.32 0 .52-.193.96-.58 1.32-.373.347-.853.52-1.44.52Zm1.7 1.16V31h-3.42V19.84h3.42ZM111.073 31h-3.42l-5.72-8.66V31h-3.42V16.96h3.42l5.72 8.7v-8.7h3.42V31Zm12.999-5.76c0 .32-.019.653-.059 1h-7.74c.053.693.273 1.227.66 1.6.4.36.886.54 1.46.54.853 0 1.446-.36 1.78-1.08h3.64a4.94 4.94 0 0 1-1.02 1.98 4.967 4.967 0 0 1-1.82 1.38c-.734.333-1.554.5-2.46.5-1.094 0-2.067-.233-2.92-.7a4.975 4.975 0 0 1-2-2c-.48-.867-.72-1.88-.72-3.04 0-1.16.233-2.173.7-3.04a4.975 4.975 0 0 1 2-2c.853-.467 1.833-.7 2.94-.7 1.08 0 2.04.227 2.88.68a4.82 4.82 0 0 1 1.96 1.94c.48.84.719 1.82.719 2.94Zm-3.499-.9c0-.587-.2-1.053-.6-1.4-.4-.347-.9-.52-1.5-.52-.574 0-1.06.167-1.46.5-.387.333-.627.807-.72 1.42h4.28Zm11.524 3.76V31h-1.74c-1.24 0-2.207-.3-2.9-.9-.694-.613-1.04-1.607-1.04-2.98v-4.44h-1.36v-2.84h1.36v-2.72h3.42v2.72h2.24v2.84h-2.24v4.48c0 .333.08.573.24.72.16.147.426.22.8.22h1.22Zm17.925-8.26L147.002 31h-3.78l-1.76-7.24-1.82 7.24h-3.76l-3.04-11.16h3.42l1.58 7.98 1.88-7.98h3.62l1.9 7.94 1.56-7.94h3.22Zm6.384 11.32c-1.093 0-2.08-.233-2.96-.7a5.21 5.21 0 0 1-2.06-2c-.493-.867-.74-1.88-.74-3.04 0-1.147.253-2.153.76-3.02a5.141 5.141 0 0 1 2.08-2.02c.88-.467 1.867-.7 2.96-.7s2.08.233 2.96.7a5.141 5.141 0 0 1 2.08 2.02c.507.867.76 1.873.76 3.02s-.26 2.16-.78 3.04a5.147 5.147 0 0 1-2.1 2c-.88.467-1.867.7-2.96.7Zm0-2.96c.653 0 1.207-.24 1.66-.72.467-.48.7-1.167.7-2.06s-.227-1.58-.68-2.06c-.44-.48-.987-.72-1.64-.72-.667 0-1.22.24-1.66.72-.44.467-.66 1.153-.66 2.06 0 .893.213 1.58.64 2.06.44.48.987.72 1.64.72Zm11.074-6.5c.4-.613.9-1.093 1.5-1.44.6-.36 1.267-.54 2-.54v3.62h-.94c-.853 0-1.493.187-1.92.56-.426.36-.64 1-.64 1.92V31h-3.42V19.84h3.42v1.86Zm11.955 9.3-3.4-4.68V31h-3.42V16.2h3.42v8.18l3.38-4.54h4.22l-4.64 5.6 4.68 5.56h-4.24Z"/></svg>